<svg viewBox="0 0 24 24" xmlns="http://www.w3.org/2000/svg"><g fill-rule="evenodd" fill="none"><path d="M0 0h24v24H0Z"/><path fill="#000" d="M12.84 16h-1.69l-.18.63c-.65 2.42-3.15 3.86-5.57 3.21 -2.43-.65-3.87-3.15-3.22-5.57l1.71-6.42c.64-2.43 3.14-3.87 5.56-3.22 1.05.28 1.91.91 2.51 1.73 .59-.82 1.45-1.45 2.51-1.74 2.42-.65 4.91.78 5.56 3.21l1.71 6.41c.64 2.42-.79 4.91-3.22 5.56 -2.43.64-4.92-.79-5.57-3.22l-.18-.64Zm4.61 2.1c1.5 0 2.72-1.27 2.72-2.84 0-1.57-1.23-2.84-2.73-2.84 -1.51 0-2.73 1.26-2.73 2.83 0 1.56 1.22 2.83 2.72 2.83Zm-10.92 0c1.5 0 2.72-1.27 2.72-2.84 0-1.57-1.23-2.84-2.73-2.84 -1.51 0-2.73 1.26-2.73 2.83 0 1.56 1.22 2.83 2.72 2.83Z"/></g></svg>