<svg width="238" height="246" viewBox="0 0 238 246" fill="none" xmlns="http://www.w3.org/2000/svg">
<g clip-path="url(#clip0)">
<path opacity="0.3" d="M59.9795 162.285L22.6837 172.363C19.2508 173.291 17.2198 176.826 18.1475 180.259L28.2259 217.555C29.1536 220.988 32.6886 223.019 36.1215 222.091L73.4173 212.013C76.8503 211.085 78.8812 207.55 77.9535 204.117L67.8751 166.821C66.9475 163.388 63.4124 161.357 59.9795 162.285Z" fill="#BBBFC2"/>
<path opacity="0.3" fill-rule="evenodd" clip-rule="evenodd" d="M36.2069 185.384L54.8548 180.344L59.894 198.992L41.2461 204.032L36.2069 185.384Z" fill="#BBBFC2"/>
<path fill-rule="evenodd" clip-rule="evenodd" d="M68.7148 169.929L71.8228 169.089C73.5322 168.627 75.3003 169.617 75.7707 171.358C76.2326 173.067 75.2119 174.843 73.5025 175.305L70.3946 176.145L68.7148 169.929Z" fill="#BBBFC2"/>
<path fill-rule="evenodd" clip-rule="evenodd" d="M72.0743 182.361L75.1823 181.521C76.8917 181.059 78.6598 182.049 79.1302 183.789C79.5921 185.499 78.5714 187.275 76.8621 187.737L73.7541 188.577L72.0743 182.361Z" fill="#BBBFC2"/>
<path fill-rule="evenodd" clip-rule="evenodd" d="M75.4338 194.793L78.5418 193.953C80.2512 193.491 82.0193 194.481 82.4896 196.221C82.9516 197.931 81.9309 199.707 80.2215 200.169L77.1136 201.009L75.4338 194.793Z" fill="#BBBFC2"/>
<path fill-rule="evenodd" clip-rule="evenodd" d="M15.8792 184.207L18.9872 183.367L20.6669 189.583L17.5589 190.423C15.8185 190.893 14.073 189.864 13.6111 188.155C13.1408 186.414 14.1388 184.677 15.8792 184.207Z" fill="#BBBFC2"/>
<path fill-rule="evenodd" clip-rule="evenodd" d="M19.2388 196.639L22.3468 195.799L24.0265 202.015L20.9186 202.855C19.1781 203.325 17.4326 202.296 16.9707 200.587C16.5004 198.846 17.4984 197.109 19.2388 196.639Z" fill="#BBBFC2"/>
<path fill-rule="evenodd" clip-rule="evenodd" d="M22.5982 209.071L25.7062 208.231L27.3859 214.447L24.2779 215.287C22.5375 215.757 20.792 214.728 20.3301 213.019C19.8598 211.278 20.8577 209.541 22.5982 209.071Z" fill="#BBBFC2"/>
</g>
<path opacity="0.3" fill-rule="evenodd" clip-rule="evenodd" d="M177.849 116.919L226.581 147.575C228.157 148.567 228.654 150.639 227.644 152.245L207.808 183.777C206.816 185.354 204.715 185.832 203.138 184.84L154.406 154.185C152.801 153.175 152.351 151.091 153.343 149.515L173.179 117.982C174.189 116.377 176.243 115.909 177.849 116.919Z" fill="#BBBFC2"/>
<path opacity="0.3" fill-rule="evenodd" clip-rule="evenodd" d="M173.826 142.395L176.692 144.198L165.872 161.398L163.006 159.594L173.826 142.395Z" fill="#BBBFC2"/>
<path opacity="0.3" fill-rule="evenodd" clip-rule="evenodd" d="M188.158 151.411L191.025 153.215L180.205 170.414L177.339 168.611L188.158 151.411Z" fill="#BBBFC2"/>
<path opacity="0.3" fill-rule="evenodd" clip-rule="evenodd" d="M202.491 160.428L205.358 162.231L194.538 179.43L191.672 177.627L202.491 160.428Z" fill="#BBBFC2"/>
<path fill-rule="evenodd" clip-rule="evenodd" d="M183.582 120.526L192.182 125.935L181.362 143.135C180.37 144.712 178.269 145.19 176.692 144.198L173.826 142.395C172.22 141.385 171.77 139.302 172.762 137.725L183.582 120.526Z" fill="#BBBFC2"/>
<path fill-rule="evenodd" clip-rule="evenodd" d="M197.915 129.542L206.515 134.952L195.695 152.151C194.703 153.728 192.602 154.206 191.025 153.215L188.158 151.411C186.553 150.402 186.103 148.318 187.095 146.742L197.915 129.542Z" fill="#BBBFC2"/>
<path fill-rule="evenodd" clip-rule="evenodd" d="M212.248 138.558L220.847 143.968L210.028 161.168C209.036 162.744 206.935 163.223 205.358 162.231L202.491 160.428C200.886 159.418 200.436 157.335 201.428 155.758L212.248 138.558Z" fill="#BBBFC2"/>
<g clip-path="url(#clip1)">
<path opacity="0.3" fill-rule="evenodd" clip-rule="evenodd" d="M110.049 114.412C107.689 113.954 105.475 115.448 105.017 117.808L94.2235 173.44C93.7721 175.766 95.2602 178.014 97.6203 178.472L124.593 183.705C126.919 184.156 129.174 182.635 129.625 180.308L140.419 124.677C140.877 122.317 139.348 120.096 137.022 119.645L110.049 114.412Z" fill="#BBBFC2"/>
<path d="M110.049 114.412C107.689 113.954 105.475 115.448 105.017 117.808L94.2235 173.44C93.7721 175.766 95.2602 178.014 97.6203 178.472L124.593 183.705C126.919 184.156 129.174 182.635 129.625 180.308L140.419 124.677C140.877 122.317 139.348 120.096 137.022 119.645L110.049 114.412ZM111.03 109.354L138.003 114.587C143.094 115.575 146.47 120.533 145.476 125.658L134.683 181.289C133.695 186.38 128.703 189.75 123.612 188.762L96.639 183.529C91.5142 182.535 88.1783 177.549 89.1661 172.458L99.9595 116.827C100.954 111.702 105.905 108.36 111.03 109.354ZM115.597 112.864L132.455 116.135C133.365 116.311 133.997 117.204 133.814 118.148L133.16 121.519C132.983 122.43 132.057 123.055 131.147 122.878L114.289 119.607C113.345 119.424 112.753 118.505 112.93 117.594L113.584 114.223C113.767 113.279 114.653 112.681 115.597 112.864Z" fill="#BBBFC2"/>
</g>
<g clip-path="url(#clip2)">
<path opacity="0.3" d="M177.914 193.833L174.844 201.029C169.482 198.748 163.407 198.941 158.144 201.686C152.907 204.417 149.257 209.263 148.033 214.913L140.374 213.249C142.06 205.32 147.151 198.526 154.473 194.707C161.795 190.889 170.319 190.615 177.785 193.771L177.914 193.833ZM183.862 179.381L180.83 186.589C171.22 182.546 160.312 182.899 150.905 187.804C141.498 192.71 134.953 201.427 132.765 211.557L125.106 209.892C127.78 197.471 135.768 186.805 147.234 180.826C158.725 174.833 172.043 174.388 183.759 179.306L183.862 179.381Z" fill="#BBBFC2"/>
<path fill-rule="evenodd" clip-rule="evenodd" d="M171.644 208.163L168.689 215.395L167.11 219.064L163.351 218.243L155.669 216.72C156.34 213.233 158.534 210.246 161.737 208.575C164.813 206.971 168.389 206.82 171.579 208.1L171.644 208.163Z" fill="#BBBFC2"/>
</g>
<path d="M194.713 101.636V75.993C194.713 74.7463 195.507 73.6412 196.697 73.2729L222.198 66.1893C224.011 65.5943 225.853 66.9543 225.853 68.8811V101.466H225.825C225.796 104.582 222.651 107.104 218.741 107.104C214.803 107.104 211.657 104.554 211.657 101.437C211.657 98.2921 214.803 95.7704 218.741 95.7704C219.223 95.7704 219.676 95.7987 220.158 95.8837V75.908L200.324 81.2065V107.047H200.295C200.267 110.164 197.122 112.686 193.212 112.686C189.273 112.686 186.128 110.136 186.128 107.019C186.128 103.874 189.273 101.352 193.212 101.352C193.693 101.352 194.147 101.381 194.628 101.466L194.713 101.636Z" fill="#BBBFC2"/>
<g clip-path="url(#clip3)">
<path opacity="0.3" fill-rule="evenodd" clip-rule="evenodd" d="M216.931 52.0959L210.401 55.8663L200.864 46.8533L203.901 59.6189L198.48 62.7491C197.894 63.087 197.117 62.8787 196.779 62.2934L187.36 45.9428L217.856 28.3358L227.306 44.6686C227.668 45.2604 227.46 46.0378 226.85 46.3692L221.429 49.4994L216.741 46.3944L217.085 52.007L216.931 52.0959Z" fill="#BBBFC2"/>
<path fill-rule="evenodd" clip-rule="evenodd" d="M193.878 30.5559L184.608 19.4792C182.838 17.3384 183.117 14.1584 185.234 12.382C185.469 12.1846 185.722 12.0181 185.968 11.8758L188.925 10.1684C191.359 8.76343 194.42 9.58366 195.801 12.0107C195.967 12.2636 196.097 12.5586 196.202 12.8472L201.025 26.4298L210.636 20.881C211.868 20.1696 213.398 20.5797 214.085 21.8053L216.617 26.1553L186.152 43.7445L183.651 39.3768C182.964 38.1511 183.374 36.6206 184.575 35.9269L194.032 30.467L193.878 30.5559ZM189.972 15.3963C188.771 16.0899 188.361 17.6205 189.054 18.8218C189.772 20.0297 191.303 20.4398 192.504 19.7462C193.736 19.0348 194.146 17.5043 193.429 16.2964C192.741 15.0707 191.211 14.6606 190.003 15.3785L189.972 15.3963Z" fill="#BBBFC2"/>
</g>
<path opacity="0.3" fill-rule="evenodd" clip-rule="evenodd" d="M145.352 78.9202L142.734 76.3018C142.245 75.8124 142.245 75.0294 142.734 74.5644L144.447 72.827C144.912 72.3376 145.695 72.3376 146.16 72.827L161.723 88.3903C162.188 88.8552 162.188 89.6383 161.723 90.1032L159.986 91.8162C159.496 92.2811 158.713 92.2811 158.248 91.8162L155.63 89.1978L141.78 103.024C139.847 104.932 136.763 104.932 134.855 103.024L131.38 99.5489C129.447 97.6157 129.447 94.5324 131.38 92.6237L145.206 78.7734L145.352 78.9202ZM135.833 95.3399C135.344 95.8049 135.344 96.5879 135.833 97.0529C136.298 97.5178 137.081 97.5178 137.546 97.0529L147.922 86.6529C148.387 86.1635 148.387 85.3804 147.922 84.9155C147.432 84.4261 146.649 84.4261 146.184 84.9155L135.785 95.291L135.833 95.3399Z" fill="#BBBFC2"/>
<path fill-rule="evenodd" clip-rule="evenodd" d="M166.103 65.0699L165.663 64.6295C165.174 64.1401 165.174 63.357 165.663 62.8921C165.761 62.7697 165.908 62.6718 166.055 62.5984L172.221 60.1024C172.662 59.9066 173.175 60.0045 173.518 60.3716L174.105 60.9589C174.448 61.3015 174.546 61.8153 174.375 62.2558L171.879 68.4224C171.609 69.0342 170.9 69.3523 170.288 69.0831C170.117 69.0097 169.994 68.9118 169.872 68.7895L169.431 68.349L155.581 82.1749L152.106 78.7L165.932 64.8497L166.103 65.0699Z" fill="#BBBFC2"/>
<path opacity="0.3" fill-rule="evenodd" clip-rule="evenodd" d="M39.056 109.819L73.1603 106.817L79.4698 113.421L33.9975 117.425L39.056 109.819Z" fill="#BBBFC2"/>
<path fill-rule="evenodd" clip-rule="evenodd" d="M36.7143 115.753L76.5026 112.25C79.6289 111.975 82.4094 114.279 82.6871 117.434L84.9106 143.015C85.1858 146.141 82.8507 148.895 79.7245 149.171C75.4021 149.523 72.5601 149.773 71.1959 149.893C68.3539 150.143 66.4325 144.584 59.3274 145.21C52.2224 145.835 52.7228 151.519 48.4597 151.895C46.4988 152.067 43.6567 152.317 39.9337 152.645C36.779 152.923 33.996 150.59 33.7183 147.436C33.7158 147.407 33.7158 147.407 33.7158 147.407L31.4614 121.801C31.1836 118.646 33.4903 115.894 36.645 115.616L36.7143 115.753ZM47.2421 137.739C50.3683 137.464 52.701 134.681 52.4257 131.554C52.148 128.4 49.3675 126.096 46.2413 126.371C43.0866 126.648 40.7799 129.401 41.0576 132.555C41.3329 135.681 44.0875 138.017 47.2421 137.739ZM69.9783 135.737C73.1045 135.462 75.4371 132.679 75.1619 129.553C74.8842 126.398 72.1037 124.094 68.9774 124.369C65.8228 124.647 63.5161 127.399 63.7938 130.554C64.069 133.68 66.8236 136.015 69.9783 135.737Z" fill="#BBBFC2"/>
<defs>
<clipPath id="clip0">
<rect width="77.2669" height="77.2669" fill="white" transform="translate(0.67627 164.971) rotate(-15.1218)"/>
</clipPath>
<clipPath id="clip1">
<rect width="82.4271" height="82.4271" fill="white" transform="translate(84.7117 100.749) rotate(10.98)"/>
</clipPath>
<clipPath id="clip2">
<rect width="68.815" height="68.815" fill="white" transform="translate(110.226 184.086) rotate(-27.5416)"/>
</clipPath>
<clipPath id="clip3">
<rect width="60.3637" height="60.3637" fill="white" transform="translate(239.794 16.4297) rotate(105)"/>
</clipPath>
</defs>
</svg>
