<svg viewBox="0 0 24 24" xmlns="http://www.w3.org/2000/svg"><path fill="none" fill-rule="evenodd" d="M0 0h24v24H0Z"/><g><path opacity=".3" d="M15.45 17.4l-1.28-1.55c1.14-.95 1.82-2.35 1.82-3.86 0-1.51-.68-2.91-1.82-3.86l1.27-1.54c1.59 1.32 2.53 3.27 2.53 5.39 0 2.11-.95 4.08-2.55 5.4Zm2.57 3.06l-1.28-1.54c2.04-1.71 3.25-4.22 3.25-6.93 0-2.72-1.21-5.23-3.25-6.93l1.27-1.54c2.49 2.07 3.96 5.14 3.96 8.45 0 3.31-1.48 6.39-3.98 8.46Zm-9.48-3.07c-1.61-1.33-2.55-3.29-2.55-5.41s.94-4.07 2.53-5.4l1.27 1.53c-1.14.94-1.82 2.34-1.82 3.85 0 1.51.67 2.91 1.82 3.85l-1.28 1.54Zm-2.58 3.06c-2.51-2.08-3.98-5.16-3.98-8.47 0-3.32 1.47-6.39 3.96-8.46l1.27 1.53c-2.05 1.7-3.25 4.21-3.25 6.92s1.2 5.22 3.25 6.92l-1.28 1.53Z"/><path fill-rule="evenodd" d="M12 10a2 2 0 1 0 0 4 2 2 0 1 0 0-4Z"/></g></svg>