<svg viewBox="0 0 24 24" xmlns="http://www.w3.org/2000/svg"><path fill="none" fill-rule="evenodd" d="M0 0h24v24H0Z"/><g><path d="M13 18.94v1.05h1c1.1 0 2 .89 2 2H8c0-1.11.89-2 2-2h1v-1.06c-1.98-.22-3.8-1.08-5.21-2.43l-1.06 1.15c-.38.4-1.01.43-1.42.06 -.41-.38-.44-1.01-.07-1.42l1.78-1.96c.41-.46 1.12-.44 1.51.04 1.32 1.62 3.29 2.58 5.43 2.58 3.86 0 7-3.14 7-7 0-2.27-1.09-4.35-2.88-5.66 -.45-.33-.55-.96-.22-1.4 .32-.45.95-.55 1.39-.22 2.3 1.68 3.69 4.36 3.69 7.27 0 4.63-3.51 8.44-8 8.94Z"/><path opacity=".3" fill-rule="evenodd" d="M12 4a6 6 0 1 0 0 12 6 6 0 1 0 0-12Z"/></g></svg>