<svg viewBox="0 0 24 24" xmlns="http://www.w3.org/2000/svg"><path fill="none" fill-rule="evenodd" d="M0 0l24 0 0 24L0 24Z"/><g><path opacity=".3" d="M18 14c-1.66 0-3-1.35-3-3 0-1.66 1.34-3 3-3 1.65 0 3 1.34 3 3 0 1.65-1.35 3-3 3Zm-9-3c-2.21 0-4-1.8-4-4 0-2.21 1.79-4 4-4 2.2 0 4 1.79 4 4 0 2.2-1.8 4-4 4Z"/><path d="M17.6 15c3.4.03 6.18 1.75 6.39 5.39 0 .14 0 .6-.55.6h-3.86c0-2.26-.75-4.33-2-6ZM-.01 20.19c.38-4.78 4.26-7.2 8.98-7.2 4.78 0 8.72 2.29 9.01 7.2 .01.19 0 .8-.76.8 -3.71 0-9.22 0-16.52 0 -.26 0-.75-.55-.73-.81Z"/></g></svg>