<svg viewBox="0 0 24 24" xmlns="http://www.w3.org/2000/svg"><g fill-rule="evenodd" fill="none"><path d="M0 0h24v24H0Z"/><g fill="#000"><path d="M15.94 3.8l-2.93 2.92c-.79.78-.79 2.04 0 2.82l1.41 1.41c.78.78 2.04.78 2.82 0l2.92-2.93c.54 1.99.03 4.2-1.52 5.76 -1.83 1.82-4.57 2.2-6.8 1.13l-5.13 5.12c-.79.78-2.05.78-2.83 0 -.79-.79-.79-2.05 0-2.83L9 12.07c-1.08-2.23-.7-4.97 1.13-6.8 1.55-1.56 3.76-2.06 5.76-1.52Z"/><path opacity=".3" d="M16.65 5.92l1.41 1.41c.39.39.39 1.02 0 1.41l-1.38 1.37c-.4.39-1.03.39-1.42 0l-1.42-1.42c-.4-.4-.4-1.03 0-1.42l1.37-1.38c.39-.4 1.02-.4 1.41 0Z"/></g></g></svg>