<svg width="172" height="155" viewBox="0 0 172 155" fill="none" xmlns="http://www.w3.org/2000/svg">
<path d="M136.952 71.5513C139.989 90.7067 142.976 109.872 146.113 129.008C146.881 133.847 145.959 138.131 143.08 142.12C140.074 146.289 132.283 148.945 127.481 147.643C120.347 145.651 116.671 140.701 115.493 133.603C111.583 109.266 107.715 84.8677 103.854 60.5202C103.534 58.5038 103.265 56.4778 102.745 54.5003C101.566 50.0007 97.5217 47.6166 92.5797 48.3685C87.838 49.0815 84.3036 52.5219 84.1392 57.0225C84.0501 59.0663 84.2696 61.1021 84.5893 63.1184C86.9769 78.5029 89.5649 93.8484 91.8524 109.252C92.8093 115.614 91.492 121.637 85.9251 125.94C77.6921 132.319 66.277 129.704 62.8225 120.294C61.6517 117.144 61.2585 113.687 60.731 110.36C59.6317 104.078 58.833 97.7383 57.6336 91.4761C56.3541 84.7099 51.0915 81.1593 45.0429 82.7497C41.5757 83.6829 38.466 87.1966 37.847 91.11C37.3506 94.1682 37.3953 97.3811 36.3419 100.184C33.7416 107.236 27.7121 110.901 20.2597 110.478C13.8574 110.162 8.37889 105.251 7.00942 98.2421C5.96978 92.988 5.23077 87.6756 4.39155 82.3827C3.29657 75.4767 2.20958 68.6211 1.1647 61.7053C0.351602 56.2514 1.75256 51.4068 5.63407 47.2235C10.943 41.6199 20.9869 41.1242 26.5394 46.1773C29.0674 48.4403 30.549 51.2702 31.1847 54.6282C31.7005 57.23 32.1081 59.8008 32.674 62.3929C34.0398 68.7267 38.0643 71.6343 43.8421 70.6162C49.6199 69.598 53.1891 64.7479 52.3483 58.4681C51.19 49.8596 49.731 41.3096 48.4224 32.7303C48.1187 30.8148 48.0074 28.8099 47.7037 26.8944C46.7489 20.221 52.3031 12.907 59.3137 10.8699C65.4886 9.09915 73.4307 12.2852 76.1413 18.3059C77.5786 21.5081 78.3886 24.9881 79.0984 28.4875C80.6938 36.5954 87.5486 37.8102 92.6597 35.5186C95.9468 34.1008 98.4835 30.2307 98.2827 26.6843C98.1555 24.5787 97.7196 22.4809 97.4841 20.3443C96.8895 14.6401 98.1423 9.51249 102.308 5.17004C109.943 -2.70387 124.073 0.423539 127.054 10.7564C127.649 12.8753 127.942 15.0527 128.294 17.2707C131.221 35.4081 134.091 53.5049 136.952 71.5513Z" fill="white"/>
<path d="M45.0855 135.786C46.6105 144.427 40.5771 152.301 32.5266 153.969C24.426 155.646 16.2847 149.9 14.9318 141.694C13.5709 133.436 19.3661 125.036 27.5328 123.45C36.0923 121.736 43.6527 127.075 45.0855 135.786Z" fill="white"/>
<path d="M171.961 28.1415C171.961 37.2704 164.56 44.6708 155.431 44.6708C146.302 44.6708 138.902 37.2704 138.902 28.1415C138.902 19.0126 146.302 11.6122 155.431 11.6122C164.56 11.6122 171.961 19.0126 171.961 28.1415Z" fill="white"/>
</svg>
