<svg width="113" height="112" viewBox="0 0 113 112" fill="none" xmlns="http://www.w3.org/2000/svg">
<path fill-rule="evenodd" clip-rule="evenodd" d="M0 56V112H56.5H113V56V0H56.5H0V56ZM60.35 25.054L61.76 30.5L56.957 35.609C51.607 41.299 49.432 47.129 50.502 52.909L51.167 56.5L48.156 53.633C41.236 47.042 41.829 41.38 50.576 30.5C53.672 26.65 56.681 22.486 57.265 21.246C58.597 18.412 58.647 18.473 60.35 25.054ZM71.804 35.317C71.551 37.872 70.539 38.945 65.742 41.741C61.396 44.275 59.253 46.374 57.002 50.299L54.019 55.5L54.009 50.684C53.998 44.609 54.844 43.044 62.647 34.731C66.141 31.008 69.037 27.408 69.082 26.731C69.126 26.054 69.826 27.019 70.636 28.875C71.445 30.732 71.971 33.631 71.804 35.317ZM41.673 37.806C38.846 45.692 39.551 49.612 44.809 55.25C47.642 58.287 46.649 58.716 41.636 56.621C37.163 54.752 34 50.494 34 46.34C34 44.429 35.589 39.798 37.644 35.725C41.033 29.004 41.36 28.661 42.321 30.806C43.096 32.533 42.934 34.287 41.673 37.806ZM77.919 40.866C75.658 50.928 70.279 56.616 61.972 57.731C57.352 58.35 57.111 57.664 59.977 52.044C61.9 48.276 64.657 45.856 70.198 43.073C71.682 42.327 74.125 40.436 75.625 38.869C77.126 37.303 78.474 36.141 78.621 36.288C78.768 36.434 78.452 38.495 77.919 40.866ZM61 63C61 64.822 60.333 65 53.5 65C46.667 65 46 64.822 46 63C46 61.178 46.667 61 53.5 61C60.333 61 61 61.178 61 63ZM57.993 68.25C57.989 68.388 57.089 75.186 55.993 83.359C54.897 91.531 54 98.469 54 98.775C54 99.082 53.761 99.094 53.469 98.802C52.878 98.211 50.022 75.064 50.009 70.75C50.001 68.207 50.301 68 54 68C56.2 68 57.997 68.112 57.993 68.25Z" fill="white"/>
</svg>
