<svg width="168" height="25" viewBox="0 0 168 25" fill="none" xmlns="http://www.w3.org/2000/svg">
<path d="M39.3436 5.94429H41.9356V17.1443H39.3436V5.94429ZM49.6496 8.40829C50.7163 8.40829 51.575 8.72829 52.2256 9.36829C52.887 10.0083 53.2176 10.9576 53.2176 12.2163V17.1443H50.7216V12.6003C50.7216 11.9176 50.5723 11.411 50.2736 11.0803C49.975 10.739 49.543 10.5683 48.9776 10.5683C48.3483 10.5683 47.847 10.7656 47.4736 11.1603C47.1003 11.5443 46.9136 12.1203 46.9136 12.8883V17.1443H44.4176V8.53629H46.8016V9.54429C47.1323 9.18162 47.543 8.90429 48.0336 8.71229C48.5243 8.50962 49.063 8.40829 49.6496 8.40829ZM61.0321 16.7283C60.7868 16.9096 60.4828 17.0483 60.1201 17.1443C59.7681 17.2296 59.3948 17.2723 59.0001 17.2723C57.9761 17.2723 57.1815 17.011 56.6161 16.4883C56.0615 15.9656 55.7841 15.1976 55.7841 14.1843V10.6483H54.4561V8.72829H55.7841V6.63229H58.2801V8.72829H60.4241V10.6483H58.2801V14.1523C58.2801 14.515 58.3708 14.7976 58.5521 15.0003C58.7441 15.1923 59.0108 15.2883 59.3521 15.2883C59.7468 15.2883 60.0828 15.1816 60.3601 14.9683L61.0321 16.7283ZM70.5996 12.8723C70.5996 12.9043 70.5836 13.1283 70.5516 13.5443H64.0396C64.157 14.0776 64.4343 14.499 64.8716 14.8083C65.309 15.1176 65.853 15.2723 66.5036 15.2723C66.9516 15.2723 67.3463 15.2083 67.6876 15.0803C68.0396 14.9416 68.365 14.7283 68.6636 14.4403L69.9916 15.8803C69.181 16.8083 67.997 17.2723 66.4396 17.2723C65.469 17.2723 64.6103 17.0856 63.8636 16.7123C63.117 16.3283 62.541 15.8003 62.1356 15.1283C61.7303 14.4563 61.5276 13.6936 61.5276 12.8403C61.5276 11.9976 61.725 11.2403 62.1196 10.5683C62.525 9.88562 63.0743 9.35762 63.7676 8.98429C64.4716 8.60029 65.2556 8.40829 66.1196 8.40829C66.9623 8.40829 67.725 8.58962 68.4076 8.95229C69.0903 9.31495 69.6236 9.83762 70.0076 10.5203C70.4023 11.1923 70.5996 11.9763 70.5996 12.8723ZM66.1356 10.2963C65.5703 10.2963 65.0956 10.4563 64.7116 10.7763C64.3276 11.0963 64.093 11.5336 64.0076 12.0883H68.2476C68.1623 11.5443 67.9276 11.1123 67.5436 10.7923C67.1596 10.4616 66.6903 10.2963 66.1356 10.2963ZM74.6454 9.67229C74.944 9.25629 75.344 8.94162 75.8454 8.72829C76.3574 8.51495 76.944 8.40829 77.6054 8.40829V10.7123C77.328 10.691 77.1414 10.6803 77.0454 10.6803C76.3307 10.6803 75.7707 10.883 75.3654 11.2883C74.96 11.683 74.7574 12.2803 74.7574 13.0803V17.1443H72.2614V8.53629H74.6454V9.67229ZM82.5146 8.40829C83.848 8.40829 84.872 8.72829 85.5866 9.36829C86.3013 9.99762 86.6586 10.9523 86.6586 12.2323V17.1443H84.3226V16.0723C83.8533 16.8723 82.9786 17.2723 81.6986 17.2723C81.0373 17.2723 80.4613 17.1603 79.9706 16.9363C79.4906 16.7123 79.1226 16.403 78.8666 16.0083C78.6106 15.6136 78.4826 15.1656 78.4826 14.6643C78.4826 13.8643 78.7813 13.235 79.3786 12.7763C79.9866 12.3176 80.92 12.0883 82.1786 12.0883H84.1626C84.1626 11.5443 83.9973 11.1283 83.6666 10.8403C83.336 10.5416 82.84 10.3923 82.1786 10.3923C81.72 10.3923 81.2666 10.467 80.8186 10.6163C80.3813 10.755 80.008 10.947 79.6986 11.1923L78.8026 9.44829C79.272 9.11762 79.832 8.86162 80.4826 8.68029C81.144 8.49895 81.8213 8.40829 82.5146 8.40829ZM82.3226 15.5923C82.7493 15.5923 83.128 15.4963 83.4586 15.3043C83.7893 15.1016 84.024 14.8083 84.1626 14.4243V13.5443H82.4506C81.4266 13.5443 80.9146 13.8803 80.9146 14.5523C80.9146 14.8723 81.0373 15.1283 81.2826 15.3203C81.5386 15.5016 81.8853 15.5923 82.3226 15.5923ZM93.1714 17.2723C92.254 17.2723 91.4274 17.0856 90.6914 16.7123C89.966 16.3283 89.3954 15.8003 88.9794 15.1283C88.574 14.4563 88.3714 13.6936 88.3714 12.8403C88.3714 11.987 88.574 11.2243 88.9794 10.5523C89.3954 9.88029 89.966 9.35762 90.6914 8.98429C91.4274 8.60029 92.254 8.40829 93.1714 8.40829C94.078 8.40829 94.8674 8.60029 95.5394 8.98429C96.222 9.35762 96.718 9.89629 97.0274 10.6003L95.0914 11.6403C94.6434 10.851 93.998 10.4563 93.1554 10.4563C92.5047 10.4563 91.966 10.6696 91.5394 11.0963C91.1127 11.523 90.8994 12.1043 90.8994 12.8403C90.8994 13.5763 91.1127 14.1576 91.5394 14.5843C91.966 15.011 92.5047 15.2243 93.1554 15.2243C94.0087 15.2243 94.654 14.8296 95.0914 14.0403L97.0274 15.0963C96.718 15.779 96.222 16.3123 95.5394 16.6963C94.8674 17.0803 94.078 17.2723 93.1714 17.2723ZM104.142 16.7283C103.896 16.9096 103.592 17.0483 103.23 17.1443C102.878 17.2296 102.504 17.2723 102.11 17.2723C101.086 17.2723 100.291 17.011 99.7255 16.4883C99.1708 15.9656 98.8935 15.1976 98.8935 14.1843V10.6483H97.5655V8.72829H98.8935V6.63229H101.39V8.72829H103.534V10.6483H101.39V14.1523C101.39 14.515 101.48 14.7976 101.661 15.0003C101.854 15.1923 102.12 15.2883 102.462 15.2883C102.856 15.2883 103.192 15.1816 103.47 14.9683L104.142 16.7283ZM105.543 8.53629H108.039V17.1443H105.543V8.53629ZM106.791 7.33629C106.332 7.33629 105.959 7.20295 105.671 6.93629C105.383 6.66962 105.239 6.33895 105.239 5.94429C105.239 5.54962 105.383 5.21895 105.671 4.95229C105.959 4.68562 106.332 4.55229 106.791 4.55229C107.249 4.55229 107.623 4.68029 107.911 4.93629C108.199 5.19229 108.343 5.51229 108.343 5.89629C108.343 6.31229 108.199 6.65895 107.911 6.93629C107.623 7.20295 107.249 7.33629 106.791 7.33629ZM118.899 8.53629L115.267 17.1443H112.691L109.075 8.53629H111.651L114.035 14.3923L116.499 8.53629H118.899ZM128.115 12.8723C128.115 12.9043 128.099 13.1283 128.067 13.5443H121.555C121.673 14.0776 121.95 14.499 122.387 14.8083C122.825 15.1176 123.369 15.2723 124.019 15.2723C124.467 15.2723 124.862 15.2083 125.203 15.0803C125.555 14.9416 125.881 14.7283 126.179 14.4403L127.507 15.8803C126.697 16.8083 125.513 17.2723 123.955 17.2723C122.985 17.2723 122.126 17.0856 121.379 16.7123C120.633 16.3283 120.057 15.8003 119.651 15.1283C119.246 14.4563 119.043 13.6936 119.043 12.8403C119.043 11.9976 119.241 11.2403 119.635 10.5683C120.041 9.88562 120.59 9.35762 121.283 8.98429C121.987 8.60029 122.771 8.40829 123.635 8.40829C124.478 8.40829 125.241 8.58962 125.923 8.95229C126.606 9.31495 127.139 9.83762 127.523 10.5203C127.918 11.1923 128.115 11.9763 128.115 12.8723ZM123.651 10.2963C123.086 10.2963 122.611 10.4563 122.227 10.7763C121.843 11.0963 121.609 11.5336 121.523 12.0883H125.763C125.678 11.5443 125.443 11.1123 125.059 10.7923C124.675 10.4616 124.206 10.2963 123.651 10.2963ZM141.86 14.7443H136.66L135.668 17.1443H133.012L138.004 5.94429H140.564L145.572 17.1443H142.852L141.86 14.7443ZM141.044 12.7763L139.268 8.48829L137.492 12.7763H141.044ZM148.942 9.67229C149.241 9.25629 149.641 8.94162 150.142 8.72829C150.654 8.51495 151.241 8.40829 151.902 8.40829V10.7123C151.625 10.691 151.438 10.6803 151.342 10.6803C150.628 10.6803 150.068 10.883 149.662 11.2883C149.257 11.683 149.054 12.2803 149.054 13.0803V17.1443H146.558V8.53629H148.942V9.67229ZM159.235 16.7283C158.99 16.9096 158.686 17.0483 158.323 17.1443C157.971 17.2296 157.598 17.2723 157.203 17.2723C156.179 17.2723 155.385 17.011 154.819 16.4883C154.265 15.9656 153.987 15.1976 153.987 14.1843V10.6483H152.659V8.72829H153.987V6.63229H156.483V8.72829H158.627V10.6483H156.483V14.1523C156.483 14.515 156.574 14.7976 156.755 15.0003C156.947 15.1923 157.214 15.2883 157.555 15.2883C157.95 15.2883 158.286 15.1816 158.563 14.9683L159.235 16.7283ZM163.532 17.2723C162.818 17.2723 162.119 17.187 161.436 17.0163C160.754 16.835 160.21 16.611 159.804 16.3443L160.636 14.5523C161.02 14.7976 161.484 15.0003 162.028 15.1603C162.572 15.3096 163.106 15.3843 163.628 15.3843C164.684 15.3843 165.212 15.123 165.212 14.6003C165.212 14.355 165.068 14.179 164.78 14.0723C164.492 13.9656 164.05 13.875 163.452 13.8003C162.748 13.6936 162.167 13.571 161.708 13.4323C161.25 13.2936 160.85 13.0483 160.508 12.6963C160.178 12.3443 160.012 11.843 160.012 11.1923C160.012 10.6483 160.167 10.1683 160.476 9.75229C160.796 9.32562 161.255 8.99495 161.852 8.76029C162.46 8.52562 163.175 8.40829 163.996 8.40829C164.604 8.40829 165.207 8.47762 165.804 8.61629C166.412 8.74429 166.914 8.92562 167.308 9.16029L166.476 10.9363C165.719 10.5096 164.892 10.2963 163.996 10.2963C163.463 10.2963 163.063 10.371 162.796 10.5203C162.53 10.6696 162.396 10.8616 162.396 11.0963C162.396 11.363 162.54 11.5496 162.828 11.6563C163.116 11.763 163.575 11.8643 164.204 11.9603C164.908 12.0776 165.484 12.2056 165.932 12.3443C166.38 12.4723 166.77 12.7123 167.1 13.0643C167.431 13.4163 167.596 13.907 167.596 14.5363C167.596 15.0696 167.436 15.5443 167.116 15.9603C166.796 16.3763 166.327 16.7016 165.708 16.9363C165.1 17.1603 164.375 17.2723 163.532 17.2723Z" fill="white"/>
<path d="M21.7058 12.1771C21.7058 15.3489 21.6975 18.5207 21.7142 21.6925C21.7142 22.4938 21.4554 23.1532 20.8878 23.7041C20.2952 24.28 18.9681 24.4636 18.2252 24.1047C17.1234 23.5622 16.656 22.6524 16.6477 21.4755C16.6393 17.444 16.6393 13.4041 16.6393 9.37261C16.6393 9.03874 16.6477 8.70487 16.6143 8.371C16.5392 7.61144 15.9465 7.10229 15.1286 7.0689C14.344 7.03551 13.6846 7.47789 13.5427 8.19572C13.4759 8.52124 13.4592 8.85511 13.4592 9.18898C13.4508 11.7348 13.4759 14.2805 13.4509 16.8263C13.4425 17.878 13.0752 18.8045 12.0653 19.322C10.5712 20.0899 8.79334 19.3136 8.47616 17.6944C8.36766 17.1518 8.3927 16.5842 8.3927 16.0334C8.376 14.99 8.40939 13.9467 8.376 12.9033C8.34262 11.7765 7.58306 11.042 6.56475 11.1087C5.98047 11.1505 5.38785 11.6179 5.18753 12.2272C5.02894 12.703 4.95382 13.2205 4.71176 13.6378C4.11079 14.6895 3.0424 15.0902 1.84881 14.7897C0.822159 14.5393 0.0626009 13.5794 0.020867 12.4108C-0.0125202 11.5344 0.00417339 10.658 0.00417339 9.78161C0.00417339 8.6381 0.00417339 7.50293 0.0125202 6.35942C0.020867 5.45797 0.371432 4.72345 1.10595 4.17256C2.10756 3.43805 3.74353 3.67176 4.51144 4.65668C4.862 5.09906 5.02894 5.59986 5.04563 6.1591C5.06233 6.59313 5.06233 7.01882 5.08737 7.45285C5.14579 8.51289 5.72172 9.10552 6.6816 9.12221C7.64148 9.1389 8.34262 8.47116 8.36766 7.43616C8.40104 6.0172 8.38435 4.59825 8.3927 3.1793C8.3927 2.86212 8.42608 2.53659 8.42608 2.21942C8.44278 1.11764 9.52786 0.116025 10.7131 0.00751628C11.7565 -0.0842984 12.9584 0.675259 13.2422 1.72695C13.3924 2.28619 13.4342 2.87046 13.4592 3.45474C13.5093 4.80692 14.586 5.21591 15.4708 5.00724C16.0384 4.88204 16.5475 4.3395 16.6059 3.76357C16.6393 3.42135 16.6226 3.07079 16.6393 2.72022C16.6894 1.78538 17.0233 1.00078 17.8079 0.433203C19.2435 -0.593453 21.4471 0.349735 21.6641 2.10256C21.7058 2.46147 21.6975 2.82038 21.6975 3.18764C21.7058 6.19249 21.7058 9.18898 21.7058 12.1771Z" fill="white"/>
<path d="M5.03726 18.7878C5.0623 20.2234 3.88541 21.3002 2.54157 21.3169C1.18939 21.3336 0.020843 20.1567 0.0124963 18.7961C0.00414946 17.4273 1.15601 16.2587 2.51653 16.2587C3.94383 16.2504 5.02892 17.3438 5.03726 18.7878Z" fill="white"/>
</svg>
