<svg viewBox="0 0 24 24" xmlns="http://www.w3.org/2000/svg"><g fill="#F17171"><path d="M23.002 12.5c-.28 0-.51-.23-.51-.5 0-.28.21-.5.49-.5h.01c.27 0 .5.22.5.5 0 .27-.23.5-.5.5Z"/><path d="M21.002 12.5c-.28 0-.51-.23-.51-.5 0-.28.21-.5.49-.5h.01c.27 0 .5.22.5.5 0 .27-.23.5-.5.5Z"/><path d="M19.002 12.5c-.28 0-.51-.23-.51-.5 0-.28.21-.5.49-.5h.01c.27 0 .5.22.5.5 0 .27-.23.5-.5.5Z"/><path d="M17.002 12.5c-.28 0-.51-.23-.51-.5 0-.28.21-.5.49-.5h.01c.27 0 .5.22.5.5 0 .27-.23.5-.5.5Z"/><path d="M15.002 12.5c-.28 0-.51-.23-.51-.5 0-.28.21-.5.49-.5h.01c.27 0 .5.22.5.5 0 .27-.23.5-.5.5Z"/><path d="M13.002 12.5c-.28 0-.51-.23-.51-.5 0-.28.21-.5.49-.5h.01c.27 0 .5.22.5.5 0 .27-.23.5-.5.5Z"/><path d="M11.002 12.5c-.28 0-.51-.23-.51-.5 0-.28.21-.5.49-.5h.01c.27 0 .5.22.5.5 0 .27-.23.5-.5.5Z"/><path d="M21.002 10.5c-.28 0-.51-.23-.51-.5 0-.28.21-.5.49-.5h.01c.27 0 .5.22.5.5 0 .27-.23.5-.5.5Z"/><path d="M19.002 10.5c-.28 0-.51-.23-.51-.5 0-.28.21-.5.49-.5h.01c.27 0 .5.22.5.5 0 .27-.23.5-.5.5Z"/><path d="M17.002 10.5c-.28 0-.51-.23-.51-.5 0-.28.21-.5.49-.5h.01c.27 0 .5.22.5.5 0 .27-.23.5-.5.5Z"/><path d="M15.002 10.5c-.28 0-.51-.23-.51-.5 0-.28.21-.5.49-.5h.01c.27 0 .5.22.5.5 0 .27-.23.5-.5.5Z"/><path d="M13.002 10.5c-.28 0-.51-.23-.51-.5 0-.28.21-.5.49-.5h.01c.27 0 .5.22.5.5 0 .27-.23.5-.5.5Z"/><path d="M19.002 8.5c-.28 0-.51-.23-.51-.5 0-.28.21-.5.49-.5h.01c.27 0 .5.22.5.5 0 .27-.23.5-.5.5Z"/><path d="M17.002 8.5c-.28 0-.51-.23-.51-.5 0-.28.21-.5.49-.5h.01c.27 0 .5.22.5.5 0 .27-.23.5-.5.5Z"/><path d="M15.002 8.5c-.28 0-.51-.23-.51-.5 0-.28.21-.5.49-.5h.01c.27 0 .5.22.5.5 0 .27-.23.5-.5.5Z"/><path d="M13.002 8.5c-.28 0-.51-.23-.51-.5 0-.28.21-.5.49-.5h.01c.27 0 .5.22.5.5 0 .27-.23.5-.5.5Z"/><path d="M17.002 6.5c-.28 0-.51-.23-.51-.5 0-.28.21-.5.49-.5h.01c.27 0 .5.22.5.5 0 .27-.23.5-.5.5Z"/><path d="M15.002 6.5c-.28 0-.51-.23-.51-.5 0-.28.21-.5.49-.5h.01c.27 0 .5.22.5.5 0 .27-.23.5-.5.5Z"/><path d="M13.002 6.5c-.28 0-.51-.23-.51-.5 0-.28.21-.5.49-.5h.01c.27 0 .5.22.5.5 0 .27-.23.5-.5.5Z"/><path d="M15.002 4.5c-.28 0-.51-.23-.51-.5 0-.28.21-.5.49-.5h.01c.27 0 .5.22.5.5 0 .27-.23.5-.5.5Z"/><path d="M13.002 4.5c-.28 0-.51-.23-.51-.5 0-.28.21-.5.49-.5h.01c.27 0 .5.22.5.5 0 .27-.23.5-.5.5Z"/><path d="M13.002 2.5c-.28 0-.51-.23-.51-.5 0-.28.21-.5.49-.5h.01c.27 0 .5.22.5.5 0 .27-.23.5-.5.5Z"/><path d="M21.002 14.5c-.28 0-.51-.23-.51-.5 0-.28.21-.5.49-.5h.01c.27 0 .5.22.5.5 0 .27-.23.5-.5.5Z"/><path d="M19.002 14.5c-.28 0-.51-.23-.51-.5 0-.28.21-.5.49-.5h.01c.27 0 .5.22.5.5 0 .27-.23.5-.5.5Z"/><path d="M17.002 14.5c-.28 0-.51-.23-.51-.5 0-.28.21-.5.49-.5h.01c.27 0 .5.22.5.5 0 .27-.23.5-.5.5Z"/><path d="M15.002 14.5c-.28 0-.51-.23-.51-.5 0-.28.21-.5.49-.5h.01c.27 0 .5.22.5.5 0 .27-.23.5-.5.5Z"/><path d="M13.002 14.5c-.28 0-.51-.23-.51-.5 0-.28.21-.5.49-.5h.01c.27 0 .5.22.5.5 0 .27-.23.5-.5.5Z"/><path d="M19.002 16.5c-.28 0-.51-.23-.51-.5 0-.28.21-.5.49-.5h.01c.27 0 .5.22.5.5 0 .27-.23.5-.5.5Z"/><path d="M17.002 16.5c-.28 0-.51-.23-.51-.5 0-.28.21-.5.49-.5h.01c.27 0 .5.22.5.5 0 .27-.23.5-.5.5Z"/><path d="M15.002 16.5c-.28 0-.51-.23-.51-.5 0-.28.21-.5.49-.5h.01c.27 0 .5.22.5.5 0 .27-.23.5-.5.5Z"/><path d="M13.002 16.5c-.28 0-.51-.23-.51-.5 0-.28.21-.5.49-.5h.01c.27 0 .5.22.5.5 0 .27-.23.5-.5.5Z"/><path d="M17.002 18.5c-.28 0-.51-.23-.51-.5 0-.28.21-.5.49-.5h.01c.27 0 .5.22.5.5 0 .27-.23.5-.5.5Z"/><path d="M15.002 18.5c-.28 0-.51-.23-.51-.5 0-.28.21-.5.49-.5h.01c.27 0 .5.22.5.5 0 .27-.23.5-.5.5Z"/><path d="M13.002 18.5c-.28 0-.51-.23-.51-.5 0-.28.21-.5.49-.5h.01c.27 0 .5.22.5.5 0 .27-.23.5-.5.5Z"/><path d="M15.002 20.5c-.28 0-.51-.23-.51-.5 0-.28.21-.5.49-.5h.01c.27 0 .5.22.5.5 0 .27-.23.5-.5.5Z"/><path d="M13.002 20.5c-.28 0-.51-.23-.51-.5 0-.28.21-.5.49-.5h.01c.27 0 .5.22.5.5 0 .27-.23.5-.5.5Z"/><path d="M13.002 22.5c-.28 0-.51-.23-.51-.5 0-.28.21-.5.49-.5h.01c.27 0 .5.22.5.5 0 .27-.23.5-.5.5Z"/><path d="M9.002 12.5c-.28 0-.51-.23-.51-.5 0-.28.21-.5.49-.5h.01c.27 0 .5.22.5.5 0 .27-.23.5-.5.5Z"/><path d="M7.002 12.5c-.28 0-.51-.23-.51-.5 0-.28.21-.5.49-.5h.01c.27 0 .5.22.5.5 0 .27-.23.5-.5.5Z"/><path d="M5.002 12.5c-.28 0-.51-.23-.51-.5 0-.28.21-.5.49-.5h.01c.27 0 .5.22.5.5 0 .27-.23.5-.5.5Z"/><path d="M3.002 12.5c-.28 0-.51-.23-.51-.5 0-.28.21-.5.49-.5h.01c.27 0 .5.22.5.5 0 .27-.23.5-.5.5Z"/><path d="M1.002 12.5c-.276 0-.505-.23-.505-.5 0-.28.21-.5.495-.5h.01c.276 0 .5.22.5.5 0 .27-.23.5-.5.5Z"/><path d="M11.002 14.5c-.28 0-.51-.23-.51-.5 0-.28.21-.5.49-.5h.01c.27 0 .5.22.5.5 0 .27-.23.5-.5.5Z"/><path d="M9.002 14.5c-.28 0-.51-.23-.51-.5 0-.28.21-.5.49-.5h.01c.27 0 .5.22.5.5 0 .27-.23.5-.5.5Z"/><path d="M7.002 14.5c-.28 0-.51-.23-.51-.5 0-.28.21-.5.49-.5h.01c.27 0 .5.22.5.5 0 .27-.23.5-.5.5Z"/><path d="M5.002 14.5c-.28 0-.51-.23-.51-.5 0-.28.21-.5.49-.5h.01c.27 0 .5.22.5.5 0 .27-.23.5-.5.5Z"/><path d="M3.002 14.5c-.28 0-.51-.23-.51-.5 0-.28.21-.5.49-.5h.01c.27 0 .5.22.5.5 0 .27-.23.5-.5.5Z"/><path d="M1.002 14.5c-.276 0-.505-.23-.505-.5 0-.28.21-.5.495-.5h.01c.276 0 .5.22.5.5 0 .27-.23.5-.5.5Z"/><path d="M11.002 10.5c-.28 0-.51-.23-.51-.5 0-.28.21-.5.49-.5h.01c.27 0 .5.22.5.5 0 .27-.23.5-.5.5Z"/><path d="M9.002 10.5c-.28 0-.51-.23-.51-.5 0-.28.21-.5.49-.5h.01c.27 0 .5.22.5.5 0 .27-.23.5-.5.5Z"/><path d="M7.002 10.5c-.28 0-.51-.23-.51-.5 0-.28.21-.5.49-.5h.01c.27 0 .5.22.5.5 0 .27-.23.5-.5.5Z"/><path d="M5.002 10.5c-.28 0-.51-.23-.51-.5 0-.28.21-.5.49-.5h.01c.27 0 .5.22.5.5 0 .27-.23.5-.5.5Z"/><path d="M3.002 10.5c-.28 0-.51-.23-.51-.5 0-.28.21-.5.49-.5h.01c.27 0 .5.22.5.5 0 .27-.23.5-.5.5Z"/><path d="M1.002 10.5c-.276 0-.505-.23-.505-.5 0-.28.21-.5.495-.5h.01c.276 0 .5.22.5.5 0 .27-.23.5-.5.5Z"/></g></svg>