<svg id="efc33f7c-c017-443d-9524-b4532ec94c83" data-name="Layer 1" xmlns="http://www.w3.org/2000/svg" viewBox="0 0 612 131">
  <defs>
    <style>
      .b7c41bb5-4fde-401a-9d07-81d28058d971 {
        fill: #fff;
      }
    </style>
  </defs>
  <g>
    <g>
      <path class="b7c41bb5-4fde-401a-9d07-81d28058d971" d="M339,42h-6.52V37.61h17.76V42h-6.52V59.05H339Z"/>
      <path class="b7c41bb5-4fde-401a-9d07-81d28058d971" d="M353.41,37.61h4.71V59.05h-4.71Z"/>
      <path class="b7c41bb5-4fde-401a-9d07-81d28058d971" d="M361.4,55.93l2.79-3.34a9.84,9.84,0,0,0,6.4,2.6c1.93,0,3.09-.76,3.09-2v-.06c0-1.19-.73-1.8-4.31-2.72-4.33-1.11-7.11-2.3-7.11-6.56v-.06c0-3.89,3.12-6.46,7.5-6.46a12.43,12.43,0,0,1,8,2.73l-2.46,3.55a10,10,0,0,0-5.57-2.12c-1.8,0-2.75.83-2.75,1.87v.06c0,1.41.91,1.87,4.62,2.82,4.35,1.13,6.8,2.7,6.8,6.43v.06c0,4.26-3.25,6.65-7.88,6.65A13.71,13.71,0,0,1,361.4,55.93Z"/>
      <path class="b7c41bb5-4fde-401a-9d07-81d28058d971" d="M380.91,48.4v-.07a10.9,10.9,0,0,1,11.18-11.08,11.06,11.06,0,0,1,8.45,3.31l-3,3.46a7.91,7.91,0,0,0-5.48-2.42c-3.61,0-6.22,3-6.22,6.67v.06c0,3.68,2.55,6.74,6.22,6.74,2.45,0,3.95-1,5.63-2.51l3,3a11.3,11.3,0,0,1-19.78-7.19Z"/>
      <path class="b7c41bb5-4fde-401a-9d07-81d28058d971" d="M403.85,37.61h4.72V46.1h8.7V37.61H422V59.05h-4.71v-8.6h-8.7v8.6h-4.72Z"/>
      <path class="b7c41bb5-4fde-401a-9d07-81d28058d971" d="M433.63,55.93l2.79-3.34a9.84,9.84,0,0,0,6.4,2.6c1.92,0,3.09-.76,3.09-2v-.06c0-1.19-.74-1.8-4.31-2.72-4.33-1.11-7.11-2.3-7.11-6.56v-.06c0-3.89,3.12-6.46,7.5-6.46A12.38,12.38,0,0,1,450,40l-2.45,3.55a10.06,10.06,0,0,0-5.57-2.12c-1.81,0-2.76.83-2.76,1.87v.06c0,1.41.92,1.87,4.63,2.82,4.35,1.13,6.8,2.7,6.8,6.43v.06c0,4.26-3.25,6.65-7.88,6.65A13.69,13.69,0,0,1,433.63,55.93Z"/>
      <path class="b7c41bb5-4fde-401a-9d07-81d28058d971" d="M453.14,48.4v-.07a10.89,10.89,0,0,1,11.18-11.08,11.06,11.06,0,0,1,8.45,3.31l-3,3.46a7.93,7.93,0,0,0-5.48-2.42c-3.62,0-6.22,3-6.22,6.67v.06c0,3.68,2.54,6.74,6.22,6.74,2.44,0,3.95-1,5.63-2.51l3,3a10.94,10.94,0,0,1-8.79,3.83A10.82,10.82,0,0,1,453.14,48.4Z"/>
      <path class="b7c41bb5-4fde-401a-9d07-81d28058d971" d="M476.08,37.61h4.72V46.1h8.7V37.61h4.71V59.05H489.5v-8.6h-8.7v8.6h-4.72Z"/>
      <path class="b7c41bb5-4fde-401a-9d07-81d28058d971" d="M497.8,48.4v-.07a11.09,11.09,0,0,1,11.43-11.08,11,11,0,0,1,11.35,11v.06a11.4,11.4,0,0,1-22.78.07Zm17.85,0v-.07a6.51,6.51,0,0,0-6.49-6.73,6.41,6.41,0,0,0-6.43,6.67v.06a6.52,6.52,0,0,0,6.5,6.74A6.4,6.4,0,0,0,515.65,48.4Z"/>
      <path class="b7c41bb5-4fde-401a-9d07-81d28058d971" d="M523.23,48.4v-.07A11.39,11.39,0,0,1,546,48.27v.06a11.39,11.39,0,0,1-22.77.07Zm17.85,0v-.07a6.51,6.51,0,0,0-6.5-6.73,6.4,6.4,0,0,0-6.42,6.67v.06a6.51,6.51,0,0,0,6.49,6.74A6.41,6.41,0,0,0,541.08,48.4Z"/>
      <path class="b7c41bb5-4fde-401a-9d07-81d28058d971" d="M549.6,37.61h4.71V54.76H565v4.29H549.6Z"/>
      <path class="b7c41bb5-4fde-401a-9d07-81d28058d971" d="M333,78.51v-.06a11.4,11.4,0,0,1,22.78-.06v.06a11.39,11.39,0,0,1-22.78.06Zm17.85,0v-.06a6.51,6.51,0,0,0-6.49-6.74,6.41,6.41,0,0,0-6.43,6.68v.06a6.51,6.51,0,0,0,6.49,6.74A6.41,6.41,0,0,0,350.86,78.51Z"/>
      <path class="b7c41bb5-4fde-401a-9d07-81d28058d971" d="M359.38,67.74H375.7V72H364.1v4.56h10.23v4.29H364.1v8.3h-4.72Z"/>
      <path class="b7c41bb5-4fde-401a-9d07-81d28058d971" d="M392.43,72.08h-6.52V67.74h17.76v4.34h-6.53V89.17h-4.71Z"/>
      <path class="b7c41bb5-4fde-401a-9d07-81d28058d971" d="M406.67,67.74h4.72v8.47h8.7V67.74h4.71V89.17h-4.71V80.56h-8.7v8.61h-4.72Z"/>
      <path class="b7c41bb5-4fde-401a-9d07-81d28058d971" d="M429.34,67.74h16.17v4.19H434v4.35h10.1v4.19H434V85h11.63v4.2H429.34Z"/>
      <path class="b7c41bb5-4fde-401a-9d07-81d28058d971" d="M465.18,67.58h4.35l9.18,21.59h-4.93l-2-4.81h-9.06l-2,4.81H456Zm5,12.62-2.85-7-2.85,7Z"/>
      <path class="b7c41bb5-4fde-401a-9d07-81d28058d971" d="M481.42,67.74h9.79a8.54,8.54,0,0,1,6.25,2.17,6.7,6.7,0,0,1,1.84,4.9v.06a6.65,6.65,0,0,1-4.6,6.64l5.24,7.66h-5.51l-4.6-6.86h-3.7v6.86h-4.71Zm9.49,10.4c2.3,0,3.61-1.22,3.61-3v-.06c0-2-1.41-3.06-3.7-3.06h-4.69v6.15Z"/>
      <path class="b7c41bb5-4fde-401a-9d07-81d28058d971" d="M507.94,72.08h-6.53V67.74h17.77v4.34h-6.52V89.17h-4.72Z"/>
      <path class="b7c41bb5-4fde-401a-9d07-81d28058d971" d="M520.71,86l2.79-3.33a9.84,9.84,0,0,0,6.4,2.6c1.92,0,3.09-.77,3.09-2v-.06c0-1.2-.74-1.81-4.31-2.73-4.32-1.1-7.11-2.29-7.11-6.55v-.06c0-3.89,3.12-6.46,7.5-6.46a12.43,12.43,0,0,1,8,2.72l-2.45,3.56A10,10,0,0,0,529,71.59c-1.8,0-2.75.83-2.75,1.87v.06c0,1.41.91,1.87,4.62,2.82,4.35,1.13,6.8,2.69,6.8,6.43v.06c0,4.26-3.25,6.65-7.87,6.65A13.65,13.65,0,0,1,520.71,86Z"/>
    </g>
    <rect class="b7c41bb5-4fde-401a-9d07-81d28058d971" x="309.21" y="17.78" width="1.98" height="91.21"/>
    <g>
      <g>
        <path class="b7c41bb5-4fde-401a-9d07-81d28058d971" d="M132.59,37.07H143.1L167.38,69V37.07h11.25V88.89h-9.7L143.84,56V88.89H132.59Z"/>
        <path class="b7c41bb5-4fde-401a-9d07-81d28058d971" d="M204.23,68.46,184.32,37.07h13.32L210,57.88l12.58-20.81h13L215.62,68.24V88.89H204.23Z"/>
        <path class="b7c41bb5-4fde-401a-9d07-81d28058d971" d="M240.41,66.69V37.07h11.4V66.39c0,8.44,4.21,12.81,11.18,12.81S274.16,75,274.16,66.77V37.07h11.4V66.32c0,15.68-8.81,23.38-22.73,23.38S240.41,81.93,240.41,66.69Z"/>
      </g>
      <path class="b7c41bb5-4fde-401a-9d07-81d28058d971" d="M108.94,109H17.73V17.78h91.21V109ZM60.18,98.33a1,1,0,0,0,1.8,0l3.19-25.27H57.42l2.76,25.27Zm7.7-27.1V67.41H54.71v3.82Zm-3.8-5.69C80.77,66.14,82,50.93,82,45.24c0-.33-.15-.37-.23-.13-.49,1.18-2.67,5.42-8.69,8a15.69,15.69,0,0,0-9.16,12.23A.16.16,0,0,0,64.08,65.54Zm-1.83-1.1c2.63-12.67,12.94-13,13.86-15.38,1.44-3.75-1.19-10.4-1.86-11.18-.07-.09-.16,0-.19,0a22.65,22.65,0,0,1-5.32,7.33C66.4,47.13,57.45,53.76,62,64.44A.11.11,0,0,0,62.25,64.44Zm-1.83.5C54.84,53,66,45.29,67.84,43.62c.25-.23.19-.45.19-.73,0-3.75-2.15-9.83-2.85-10.71-.1-.12-.19-.07-.23.06C64,36,58.9,41.48,57.88,42.69c-8.63,10.26-6.65,16.5,2.36,22.4C60.35,65.16,60.49,65.07,60.42,64.94Zm-2.5.41c-9.35-5.57-8.41-13.54-4.54-19.4a.86.86,0,0,0,.09-.56,22.07,22.07,0,0,0-2.32-5.87c-.16-.25-.3-.23-.31-.05-.06,1.58-1.87,5.58-4.64,10.17-3,4.9-3,15.52,11.68,15.94C58,65.58,58.06,65.44,57.92,65.35Z"/>
    </g>
  </g>
</svg>
